<?xml version="1.0" encoding="UTF-8" standalone="no"?>
<!-- Generator: Adobe Illustrator 23.0.1, SVG Export Plug-In . SVG Version: 6.00 Build 0)  -->

<svg
   xmlns:dc="http://purl.org/dc/elements/1.1/"
   xmlns:cc="http://creativecommons.org/ns#"
   xmlns:rdf="http://www.w3.org/1999/02/22-rdf-syntax-ns#"
   xmlns:svg="http://www.w3.org/2000/svg"
   xmlns="http://www.w3.org/2000/svg"
   xmlns:sodipodi="http://sodipodi.sourceforge.net/DTD/sodipodi-0.dtd"
   xmlns:inkscape="http://www.inkscape.org/namespaces/inkscape"
   version="1.1"
   x="0px"
   y="0px"
   width="24px"
   height="24px"
   viewBox="0 0 24 24"
   enable-background="new 0 0 24 24"
   xml:space="preserve"
   id="svg8"
   sodipodi:docname="contactless.svg"
   inkscape:version="0.92.4 (5da689c313, 2019-01-14)"><metadata
   id="metadata14"><rdf:RDF><cc:Work
       rdf:about=""><dc:format>image/svg+xml</dc:format><dc:type
         rdf:resource="http://purl.org/dc/dcmitype/StillImage" /></cc:Work></rdf:RDF></metadata><defs
   id="defs12" /><sodipodi:namedview
   pagecolor="#ffffff"
   bordercolor="#666666"
   borderopacity="1"
   objecttolerance="10"
   gridtolerance="10"
   guidetolerance="10"
   inkscape:pageopacity="0"
   inkscape:pageshadow="2"
   inkscape:window-width="2560"
   inkscape:window-height="1017"
   id="namedview10"
   showgrid="false"
   inkscape:zoom="39.333333"
   inkscape:cx="4.046562"
   inkscape:cy="12.131693"
   inkscape:window-x="-8"
   inkscape:window-y="-8"
   inkscape:window-maximized="1"
   inkscape:current-layer="svg8" />
<g
   id="Bounding_Box">
	<rect
   fill="none"
   width="24"
   height="24"
   id="rect2" />
</g>
<g
   id="Master"
   inkscape:export-xdpi="668.7641"
   inkscape:export-ydpi="668.7641"
   style="fill:#ffffff;fill-opacity:1">
	<path
   d="M 8.46,14.45 7.1,13.83 C 7.38,13.22 7.51,12.59 7.5,11.97 7.49,11.34 7.36,10.73 7.1,10.17 L 8.46,9.54 c 0.35,0.75 0.53,1.56 0.54,2.4 0.01,0.86 -0.17,1.7 -0.54,2.51 z m 3.07,1.56 -1.3,-0.74 c 0.52,-0.92 0.78,-1.98 0.78,-3.15 0,-1.19 -0.27,-2.33 -0.8,-3.4 l 1.34,-0.67 c 0.64,1.28 0.96,2.65 0.96,4.07 0,1.43 -0.33,2.74 -0.98,3.89 z m 3.14,1.32 -1.35,-0.66 c 0.78,-1.6 1.18,-3.18 1.18,-4.69 0,-1.51 -0.4,-3.07 -1.18,-4.64 l 1.34,-0.67 c 0.9,1.78 1.34,3.56 1.34,5.31 0,1.74 -0.44,3.54 -1.33,5.35 z"
   id="path5"
   style="fill:#ffffff;fill-opacity:1"
   inkscape:connector-curvature="0"
   sodipodi:nodetypes="cccccccccsccscccsccsc" />
</g>
</svg>